<?xml version="1.0" encoding="UTF-8"?>
<svg width="24" height="24" viewBox="0 0 24 24" fill="none" xmlns="http://www.w3.org/2000/svg">
  <rect width="24" height="24" rx="4" fill="#5F259F"/>
  <path d="M12 4C7.58172 4 4 7.58172 4 12C4 16.4183 7.58172 20 12 20C16.4183 20 20 16.4183 20 12C20 7.58172 16.4183 4 12 4ZM13.1 15.9H10.9V8.1H13.1V15.9ZM12 7.2C11.337 7.2 10.8 6.663 10.8 6C10.8 5.337 11.337 4.8 12 4.8C12.663 4.8 13.2 5.337 13.2 6C13.2 6.663 12.663 7.2 12 7.2Z" fill="white"/>
  <path d="M12 4C7.58172 4 4 7.58172 4 12C4 16.4183 7.58172 20 12 20C16.4183 20 20 16.4183 20 12C20 7.58172 16.4183 4 12 4ZM13.1 15.9H10.9V8.1H13.1V15.9ZM12 7.2C11.337 7.2 10.8 6.663 10.8 6C10.8 5.337 11.337 4.8 12 4.8C12.663 4.8 13.2 5.337 13.2 6C13.2 6.663 12.663 7.2 12 7.2Z" fill="white" fill-opacity="0.1"/>
</svg> 